<?xml version="1.0" encoding="iso-8859-1"?>
<!-- Generator: Adobe Illustrator 16.0.0, SVG Export Plug-In . SVG Version: 6.00 Build 0)  -->
<!DOCTYPE svg PUBLIC "-//W3C//DTD SVG 1.1//EN" "http://www.w3.org/Graphics/SVG/1.1/DTD/svg11.dtd">
<svg version="1.1" id="Capa_1" xmlns="http://www.w3.org/2000/svg" xmlns:xlink="http://www.w3.org/1999/xlink" x="0px" y="0px"
	 width="476.756px" height="476.756px" viewBox="0 0 476.756 476.756" style="enable-background:new 0 0 476.756 476.756;"
	 xml:space="preserve">
<g>
	<g>
		<path fill="#fff" d="M276.743,163.6c-17.338,0-32.128,10.732-38.174,25.902c-6.053-15.17-20.85-25.902-38.179-25.902
			c-22.698,0-41.115,18.398-41.115,41.105c0,0-10.575,53.314,82.229,106.631c0,0,76.36-42.022,76.36-106.626
			C317.852,181.998,299.439,163.6,276.743,163.6z M242.168,210.037c1.332-7.026,6.77-11.892,12.141-10.876
			c5.372,1.024,8.658,7.549,7.323,14.563c-1.33,7.024-6.768,11.89-12.14,10.875C244.116,223.574,240.835,217.05,242.168,210.037z
			 M222.449,199.161c5.374-1.015,10.802,3.85,12.123,10.876c1.335,7.013-1.937,13.537-7.318,14.562
			c-5.367,1.015-10.804-3.851-12.139-10.875C213.794,206.7,217.063,200.185,222.449,199.161z M200.157,232.031
			c-1.089-5.717,1.573-11.019,5.946-11.847c4.373-0.821,8.798,3.127,9.876,8.847c1.085,5.717-1.587,11.019-5.953,11.842
			C205.655,241.699,201.223,237.741,200.157,232.031z M264.73,265.795c-1.895,4.111-5.176,5.815-8.195,6.455
			c-3.78,0.793-9.908-1.121-13.67-1.961c-3.479-0.779-7.603-1.32-10.538-0.532c-6.053,1.629-13.973,5.825-20.743-2.8
			c-3.318-4.247-2.863-8.648-1.552-12.022c1.396-3.612,6.1-7.888,8.891-10.566c2.716-2.642,5.88-6.048,7.812-9.357
			c1.295-2.203,2.835-3.79,4.331-4.919c2.901-2.21,9.241-2.882,12.657-1.099c0.346,0.194,0.673,0.383,0.99,0.583
			c3.257,2.056,6.646,7.519,9.035,10.557c0.229,0.301,0.462,0.604,0.714,0.915c2.399,3.026,6.688,7.619,8.924,10.765
			C266,255.509,267.513,259.783,264.73,265.795z M276.604,232.031c-1.083,5.71-5.498,9.659-9.875,8.842
			c-4.378-0.824-7.034-6.125-5.956-11.842c1.078-5.71,5.498-9.659,9.876-8.847C275.017,221.012,277.677,226.321,276.604,232.031z"/>
		<path fill="#fff" d="M467.548,175.247h-16.414c-5.092,0-9.218-4.133-9.218-9.217V144.67c0-5.094-4.126-9.217-9.218-9.217h-23.157
			c-5.102,0-9.218-4.13-9.218-9.213V71.583c0-5.091-4.135-9.217-9.218-9.217h-28.8v-5.652h-21.838V12.216h-12.391v50.15h-8.583
			v-5.409h-22.57v-13.04h20.209V33.811h-20.209V22.402h21.432V12.216h-33.817v50.15h-21.702V22.649h15V12.216h-42.221v10.433h14.839
			v39.717h-26.409c6.125-4.926,9.801-12.839,9.801-23.263c0-15.24-9.204-27.874-26.077-27.874
			c-16.141,0-26.726,12.307-26.726,28.766c0,9.28,3.416,17.289,9.498,22.362h-17.854V12.216H160.3v21.107h-20.456V12.216h-12.386
			v50.15H85.655c-5.083,0-9.215,4.126-9.215,9.217v54.656c0,5.083-4.123,9.213-9.217,9.213H44.06c-5.092,0-9.218,4.124-9.218,9.217
			v21.359c0,5.094-4.133,9.217-9.215,9.217H9.217c-5.094,0-9.217,4.124-9.217,9.217v271.841c0,5.092,4.133,9.223,9.217,9.223H163.6
			c5.094,0,9.218-4.126,9.218-9.223v-55.286c0-5.092,4.13-9.222,9.212-9.222h112.71c5.077,0,9.217,4.125,9.217,9.222v55.286
			c0,5.092,4.121,9.223,9.213,9.223h154.378c5.092,0,9.208-4.126,9.208-9.223V184.464
			C476.766,179.37,472.626,175.247,467.548,175.247z M322.938,98.599c0-11.717,12.461-21.226,27.844-21.226
			c15.364,0,27.825,9.509,27.825,21.226v12.006c0,5.084-4.121,9.217-9.218,9.217h-37.248c-5.092,0-9.213-4.124-9.213-9.208
			C322.938,107.189,322.938,103.049,322.938,98.599z M248.078,98.599c0-11.717,12.462-21.226,27.849-21.226
			c15.364,0,27.825,9.509,27.825,21.226v12.006c0,5.084-4.13,9.217-9.218,9.217h-37.238c-5.097,0-9.218-4.124-9.218-9.208
			C248.078,107.189,248.078,103.049,248.078,98.599z M207.533,21.098c8.555,0,13.191,8.482,13.191,18.423
			c0,10.673-4.812,18.668-13.191,18.668c-8.31,0-13.369-7.575-13.369-18.414C194.174,29.083,199.058,21.098,207.533,21.098z
			 M173.013,98.599c0-11.717,12.463-21.226,27.839-21.226c15.368,0,27.841,9.509,27.841,21.226v12.006
			c0,5.084-4.133,9.217-9.217,9.217H182.23c-5.094,0-9.217-4.124-9.217-9.208C173.013,107.189,173.013,103.049,173.013,98.599z
			 M139.854,44.153h20.456v18.204h-20.456V44.153z M97.95,98.599c0-11.717,12.461-21.226,27.841-21.226
			c15.369,0,27.837,9.509,27.837,21.226v12.006c0,5.084-4.13,9.217-9.213,9.217h-37.248c-5.092,0-9.218-4.124-9.218-9.208
			C97.95,107.189,97.95,103.049,97.95,98.599z M23.097,217.383c0-11.724,12.461-21.228,27.841-21.228
			c15.369,0,27.828,9.504,27.828,21.228v12.008c0,5.092-4.124,9.218-9.215,9.218H32.306c-5.092,0-9.218-4.126-9.218-9.208
			C23.097,225.978,23.097,221.836,23.097,217.383z M22.899,277.275c0-11.728,12.47-21.226,27.841-21.226
			c15.366,0,27.828,9.498,27.828,21.226v11.99c0,5.092-4.124,9.223-9.217,9.223H32.107c-5.094,0-9.217-4.131-9.217-9.228
			C22.899,285.858,22.899,281.729,22.899,277.275z M22.701,337.169c0-11.72,12.458-21.222,27.839-21.222
			c15.369,0,27.837,9.502,27.837,21.222v12.008c0,5.097-4.133,9.218-9.215,9.218H31.916c-5.091,0-9.215-4.121-9.215-9.218
			C22.701,345.761,22.701,341.616,22.701,337.169z M153.439,432.106c0,5.087-4.13,9.218-9.218,9.218H32.306
			c-5.092,0-9.218-4.126-9.218-9.218V401c0-5.092,4.126-9.222,9.218-9.222h111.909c5.094,0,9.215,4.125,9.215,9.222v31.106H153.439z
			 M153.439,349.177c0,5.097-4.13,9.218-9.218,9.218h-37.243c-5.094,0-9.217-4.121-9.217-9.218c0-3.416,0-7.561,0-12.008
			c0-11.72,12.461-21.222,27.851-21.222c15.367,0,27.828,9.502,27.828,21.222V349.177L153.439,349.177z M153.628,289.271
			c0,5.101-4.13,9.231-9.213,9.231h-37.248c-5.092,0-9.218-4.131-9.218-9.236c0-3.407,0-7.537,0-11.98
			c0-11.724,12.461-21.23,27.841-21.23c15.369,0,27.837,9.507,27.837,21.23V289.271z M228.491,349.177
			c0,5.097-4.121,9.218-9.213,9.218H182.03c-5.091,0-9.212-4.121-9.212-9.218c0-3.416,0-7.561,0-12.008
			c0-11.72,12.466-21.222,27.846-21.222c15.369,0,27.828,9.502,27.828,21.222V349.177z M303.556,349.177
			c0,5.097-4.125,9.218-9.217,9.218h-37.248c-5.078,0-9.218-4.121-9.218-9.218c0-3.416,0-7.561,0-12.008
			c0-11.72,12.461-21.222,27.844-21.222c15.369,0,27.825,9.502,27.825,21.222v12.008H303.556z M303.752,277.846v11.425
			c0,5.101-4.13,9.231-9.218,9.231h-10.762c-21.576,19.611-41.523,30.606-41.523,30.606c-17.907-10.276-32.704-20.577-44.939-30.606
			h-15.08c-5.094,0-9.217-4.131-9.217-9.236c0-3.407,0-7.537,0-11.98c0-0.541,0.164-1.068,0.21-1.615
			c-12.398-13.763-20.299-26.598-25.268-37.749c-1.041,0.406-2.156,0.679-3.344,0.679h-37.244c-5.094,0-9.217-4.121-9.217-9.208
			c0-3.414,0-7.556,0-12.008c0-11.724,12.458-21.228,27.841-21.228c5.11,0,9.841,1.129,13.955,2.961
			c0.126-1.468,0.283-2.275,0.283-2.275c0-6.852,1.367-13.385,3.822-19.354h-36.884c-5.092,0-9.218-4.124-9.218-9.217
			c0-3.419,0-7.559,0-12.018c0-11.728,12.461-21.233,27.841-21.233c15.369,0,27.837,9.505,27.837,21.233v6.209
			c5.766-6.3,13.08-11.149,21.361-13.94c4.06-7.892,14.081-13.493,25.863-13.493c15.368,0,27.841,9.504,27.841,21.235v6.198
			c4.149,4.529,7.603,9.712,9.913,15.523c2.229-5.601,5.51-10.62,9.458-15.044c0-2.1,0-4.34,0-6.667
			c0-11.729,12.461-21.235,27.854-21.235c11.687,0,21.659,5.51,25.78,13.304c8.279,2.681,15.603,7.439,21.432,13.637
			c0-1.83,0-3.724,0-5.715c0-11.731,12.475-21.235,27.849-21.235c15.368,0,27.825,9.504,27.825,21.235v12.015
			c0,5.094-4.117,9.213-9.218,9.213H333.15c2.459,5.974,3.826,12.499,3.826,19.359c0,0.814-0.061,1.603-0.088,2.41
			c4.187-1.923,9.04-3.092,14.276-3.092c15.378,0,27.844,9.509,27.844,21.235v12.006c0,5.094-4.131,9.218-9.218,9.218h-37.248
			c-1.396,0-2.684-0.364-3.878-0.924C322.546,252.671,313.604,266.141,303.752,277.846z M378.817,277.275v11.99
			c0,5.092-4.126,9.223-9.218,9.223h-37.248c-5.092,0-9.217-4.131-9.217-9.228c0-3.407,0-7.546,0-11.985
			c0-11.728,12.475-21.226,27.849-21.226C366.347,256.05,378.817,265.548,378.817,277.275z M322.938,337.169
			c0-11.72,12.461-21.222,27.844-21.222c15.364,0,27.825,9.502,27.825,21.222v12.008c0,5.097-4.121,9.218-9.218,9.218h-37.248
			c-5.092,0-9.213-4.121-9.213-9.218C322.938,345.761,322.938,341.616,322.938,337.169z M453.673,432.106
			c0,5.087-4.121,9.218-9.218,9.218H332.558c-5.097,0-9.218-4.126-9.218-9.218V401c0-5.092,4.13-9.222,9.218-9.222h111.907
			c5.087,0,9.217,4.125,9.217,9.222v31.106H453.673z M453.673,349.177c0,5.097-4.121,9.218-9.218,9.218h-37.248
			c-5.092,0-9.213-4.121-9.213-9.218c0-3.416,0-7.561,0-12.008c0-11.72,12.466-21.222,27.839-21.222
			c15.369,0,27.826,9.502,27.826,21.222v12.008H453.673z M453.868,289.271c0,5.101-4.12,9.231-9.217,9.231h-37.248
			c-5.078,0-9.213-4.131-9.213-9.236c0-3.407,0-7.537,0-11.98c0-11.724,12.456-21.23,27.839-21.23c15.369,0,27.83,9.507,27.83,21.23
			v11.985H453.868z M454.064,229.385c0,5.094-4.13,9.215-9.208,9.215h-37.248c-5.092,0-9.217-4.121-9.217-9.208
			c0-3.414,0-7.556,0-12.008c0-11.724,12.461-21.228,27.848-21.228c15.369,0,27.825,9.504,27.825,21.228V229.385L454.064,229.385z"
			/>
	</g>
</g>
<g>
</g>
<g>
</g>
<g>
</g>
<g>
</g>
<g>
</g>
<g>
</g>
<g>
</g>
<g>
</g>
<g>
</g>
<g>
</g>
<g>
</g>
<g>
</g>
<g>
</g>
<g>
</g>
<g>
</g>
</svg>
